<svg width="32" height="31" viewBox="0 0 32 31" fill="none" xmlns="http://www.w3.org/2000/svg">
<path d="M31.2922 6.74954C30.5275 5.43667 29.164 4.24087 27.2946 2.98653L26.9871 2.77329C20.3272 -1.59179 18.1989 0.05975 16.3943 1.89944C14.1602 4.55264 12.6271 7.75711 11.9435 11.2024C11.8626 11.6414 12.599 8.69376 16.4226 8.69376C21.4479 8.69376 24.0051 16.387 16.1596 30.9289V31C16.2972 30.8662 16.4145 30.745 16.5238 30.6321C16.9284 30.214 17.4463 29.6579 17.5232 29.5617L17.8549 29.2147C17.8873 29.1812 17.9237 29.1478 17.9561 29.1101C20.7399 26.1834 23.0745 23.6747 24.9883 21.4545C31.4784 13.8783 33.1413 9.93555 31.2922 6.74954Z" fill="white"/>
<path d="M15.8399 30.9624C15.7024 30.8244 14.1082 29.1102 14.0758 29.0725C11.292 26.1457 8.9574 23.6371 7.04356 21.4169C0.521148 13.8784 -1.14182 9.93556 0.707272 6.74955C1.472 5.43668 2.83555 4.24088 4.70488 2.98655L5.03262 2.76913C11.6724 -1.59178 13.8007 0.0597643 15.6052 1.89946C12.6444 5.4286 10.9323 9.8929 10.7498 14.5599V14.6059C10.5556 17.7961 11.5227 22.2699 14.2821 28.0063C14.5694 28.6042 15.6983 30.6488 15.8359 30.908L15.8399 30.9624Z" fill="white"/>
</svg>
